<?xml version="1.0" encoding="UTF-8" standalone="no"?>
<svg
   xml:space="preserve"
   width="274.072px"
   height="350px"
   x="0px"
   y="0px"
   version="1.1"
   viewBox="0 0 274.072 350"
   id="svg3"
   sodipodi:docname="picoli.svg"
   inkscape:version="1.4.2 (f4327f4, 2025-05-13)"
   xmlns:inkscape="http://www.inkscape.org/namespaces/inkscape"
   xmlns:sodipodi="http://sodipodi.sourceforge.net/DTD/sodipodi-0.dtd"
   xmlns="http://www.w3.org/2000/svg"
   xmlns:svg="http://www.w3.org/2000/svg"><defs
     id="defs3" /><sodipodi:namedview
     id="namedview3"
     pagecolor="#ffffff"
     bordercolor="#000000"
     borderopacity="0.25"
     inkscape:showpageshadow="2"
     inkscape:pageopacity="0.0"
     inkscape:pagecheckerboard="0"
     inkscape:deskcolor="#d1d1d1"
     inkscape:zoom="1.1419775"
     inkscape:cx="93.697121"
     inkscape:cy="199.21584"
     inkscape:window-width="1920"
     inkscape:window-height="1013"
     inkscape:window-x="-9"
     inkscape:window-y="-9"
     inkscape:window-maximized="1"
     inkscape:current-layer="svg3" /><path
     d="m 74.183594,0.00390625 0.0059,0.00195313 c -1.77,0.05499998 -3.675889,0.70706248 -5.837891,2.41406252 -5.295,-2.04300005 -10.429484,-2.75175005 -15.021484,1.40625 -7.091,-0.919 -9.394625,0.9773593 -11.140625,3.1933593 -1.557,-0.032 -11.64839,-1.600266 -16.275391,5.3027348 -11.628998,-1.376 -15.304625,6.840953 -11.140624,14.501953 -2.375,3.677 -4.8372032,7.310312 0.716796,14.320312 -1.965,3.904 -0.746187,8.137672 3.882813,13.263672 -1.222,5.488 1.180328,9.360906 5.486328,12.378906 -0.310855,2.89643 0.642168,5.326201 2.0625,7.306641 2.262373,3.154539 5.709992,5.170451 7.121094,6.126953 0.882,4.376 2.720812,8.505063 11.507812,10.789063 1.449,6.521 6.72975,7.646626 11.84375,9.015624 -0.813376,0.47279 -1.621,0.9525 -2.421875,1.44141 a 110.88921,37.169567 0 0 0 16.490235,5.03906 110.88921,37.169567 0 0 0 66.083979,7.32227 110.88921,37.169567 0 0 0 65.63477,-7.31836 110.88921,37.169567 0 0 0 16.30664,-4.8086 c -0.92907,-0.57235 -1.86817,-1.13148 -2.81445,-1.68164 5.113,-1.368998 10.39575,-2.495577 11.84375,-9.017577 8.786,-2.284 10.62486,-6.413062 11.50586,-10.789062 1.5749,-1.066845 5.68731,-3.454574 7.85742,-7.271485 0.99501,-1.750081 1.58119,-3.800895 1.32812,-6.162109 4.306,-3.018 6.70738,-6.888953 5.48438,-12.376953 4.629,-5.125 5.84781,-9.360625 3.88281,-13.265625 5.555,-7.006 3.09171,-10.639406 0.7207,-14.316407 4.161,-7.662 0.48652,-15.877953 -11.14648,-14.501953 -4.627,-6.9029992 -14.71344,-5.334734 -16.27344,-5.302734 -1.746,-2.215 -4.05062,-4.1123594 -11.14062,-3.1933594 -4.593,-4.15699996 -9.72549,-3.44824995 -15.02149,-1.40625 -6.289,-4.962 -10.45012,-0.9844687 -15.20312,0.5195313 -7.614,-2.48800004 -9.35666,0.9205937 -13.09766,2.3085937 -8.304,-1.754 -10.82564,2.0646562 -14.80664,6.0976564 L 157.97656,11.25 c -11.56516,6.81591 -17.75582,20.152903 -20.37304,28.238281 -0.21699,0.670339 -0.40924,1.305058 -0.57813,1.896485 -0.16878,-0.59092 -0.36153,-1.224892 -0.57812,-1.894532 C 133.83159,31.403516 127.65423,18.064694 116.08984,11.25 l -4.63086,0.0918 c -3.986,-4.0320002 -6.5085,-7.8516564 -14.812496,-6.0976564 -3.739,-1.386 -5.47575,-4.7946406 -13.09375,-2.3066406 -3.12,-0.987 -5.99014,-3.03859375 -9.36914,-2.93359375 z"
     style=""
     id="path7" /><path
     fill="#75A928"
     fill-rule="evenodd"
     d="M49.247 32.48c25.851 8.78 49.17 20.491 68.71 36.6 22.939-10.85 7.12-38.21-4.07-49.07-.57 2.87-1.209 4.68-1.949 5.22-3.641-3.97-6.621-8.03-11.311-11.85-.02 2.24 1.11 4.68-1.68 6.46-2.52-3.44-5.92-6.51-10.44-9.11 2.181 3.81.38 4.96-.79 6.54-3.449-3-6.729-6.04-13.09-8.4 1.74 2.15 4.17 4.25 1.59 6.72-3.55-2.25-7.119-4.5-15.56-6.1 1.899 2.15 5.84 4.3 3.45 6.46-4.461-1.73-9.391-2.99-14.851-3.72 2.61 2.19 4.79 4.32 2.65 6.01-4.771-1.49-11.34-3.49-17.77-1.76l4.07 4.15c.45.56-9.52.43-16.09.53 2.4 3.39 4.84 6.65 6.27 12.47-.65.67-3.91.29-6.98 0 3.15 6.73 8.62 8.43 9.9 11.31-1.93 1.48-4.6 1.1-7.52.09 2.27 4.75 7.03 8 10.79 11.85-.95.681-2.61 1.091-6.54.62 3.47 3.74 7.67 7.17 12.64 10.25-.88 1.04-3.91.99-6.72 1.061 4.51 4.479 10.3 6.799 15.74 9.729-2.71 1.88-4.65 1.44-6.72 1.41 3.839 3.21 10.38 4.88 16.44 6.81-1.149 1.82-2.3 2.32-4.771 2.83 6.42 3.61 15.621 1.96 18.211 3.801-.62 1.81-2.391 2.989-4.51 3.979 10.34.61 38.609-.38 44.029-22.101C101.796 63.46 82.476 49.61 49.247 32.48zm176.309 0c-33.219 17.13-52.539 30.98-63.119 42.79 5.42 21.721 33.689 22.711 44.029 22.101-2.119-.99-3.889-2.17-4.51-3.979 2.59-1.841 11.791-.19 18.211-3.801-2.471-.51-3.621-1.01-4.771-2.83 6.061-1.93 12.602-3.6 16.441-6.81-2.07.03-4.01.47-6.721-1.41 5.439-2.931 11.23-5.25 15.74-9.729-2.811-.07-5.84-.021-6.721-1.061 4.971-3.08 9.17-6.51 12.641-10.25-3.93.471-5.59.061-6.539-.62 3.76-3.851 8.52-7.1 10.789-11.85-2.92 1.01-5.59 1.39-7.52-.09 1.279-2.88 6.75-4.58 9.9-11.31-3.07.29-6.33.67-6.98 0 1.43-5.82 3.879-9.09 6.279-12.47-6.58-.1-16.549.03-16.1-.53l4.07-4.16c-6.42-1.73-13 .28-17.77 1.77-2.141-1.69.039-3.83 2.648-6.01-5.459.73-10.389 1.98-14.85 3.71-2.379-2.15 1.551-4.3 3.451-6.45-8.441 1.6-12.012 3.85-15.561 6.1-2.58-2.47-.15-4.57 1.59-6.72-6.359 2.36-9.641 5.4-13.09 8.4-1.17-1.58-2.971-2.74-.791-6.54-4.52 2.6-7.92 5.67-10.43 9.1-2.799-1.78-1.67-4.21-1.68-6.45-4.699 3.82-7.68 7.88-11.32 11.85-.73-.54-1.379-2.35-1.949-5.22-11.189 10.86-27.01 38.221-4.061 49.07 19.524-16.11 42.844-27.821 68.694-36.601z"
     clip-rule="evenodd"
     id="path3" /><ellipse
     style="fill:#1b7d34;fill-opacity:1;stroke:none;stroke-width:9.91456;stroke-dasharray:none;stroke-opacity:1;paint-order:normal;stroke-linejoin:bevel"
     id="path8"
     cx="137.10889"
     cy="209.16772"
     rx="60.055233"
     ry="131.23796" /><path
     d="m 141.66187,82.596725 a 60.715385,123.03739 0 0 1 39.51563,115.294685 60.715385,123.03739 0 0 1 -60.71485,123.03677 60.715385,123.03739 0 0 1 -19.38476,-6.43811 60.055233,127.72389 0 0 0 34.27929,22.84985 60.055233,127.72389 0 0 0 60.05469,-127.7242 60.055233,127.72389 0 0 0 -53.75,-127.018995 z"
     style="fill:#125323;fill-opacity:1;stroke:none;stroke-width:9.78092;stroke-linejoin:bevel"
     id="path10" /><ellipse
     style="display:inline;fill:none;fill-opacity:1;stroke:#000000;stroke-width:9.91456;stroke-linejoin:bevel;stroke-dasharray:none;stroke-opacity:1;paint-order:normal"
     id="ellipse10"
     cx="137.10889"
     cy="209.16772"
     rx="60.055233"
     ry="131.23796" /><path
     d="m 108.80061,154.72421 a 26.134376,49.538829 0 0 1 -0.40561,-8.687 26.134376,49.538829 0 0 1 20.56328,-48.400008 25.181559,35.683141 0 0 0 -0.01,0 25.181559,35.683141 0 0 0 -25.1816,35.682768 25.181559,35.683141 0 0 0 5.03365,21.40424 z"
     style="stroke-width:8.12701;stroke-linejoin:bevel;fill:#24a745;fill-opacity:1"
     id="path13" /></svg>
